<?xml version="1.0" encoding="UTF-8" standalone="no"?>
<!-- Created with Inkscape (http://www.inkscape.org/) -->

<svg
   width="190.51443mm"
   height="206.07784mm"
   viewBox="0 0 190.51443 206.07784"
   version="1.1"
   id="svg5"
   inkscape:version="1.2.2 (732a01da63, 2022-12-09)"
   sodipodi:docname="newcaticon.svg"
   inkscape:export-filename="newicon.svg"
   inkscape:export-xdpi="161.71416"
   inkscape:export-ydpi="161.71416"
   xmlns:inkscape="http://www.inkscape.org/namespaces/inkscape"
   xmlns:sodipodi="http://sodipodi.sourceforge.net/DTD/sodipodi-0.dtd"
   xmlns="http://www.w3.org/2000/svg"
   xmlns:svg="http://www.w3.org/2000/svg">
  <sodipodi:namedview
     id="namedview7"
     pagecolor="#ffffff"
     bordercolor="#000000"
     borderopacity="0.25"
     inkscape:showpageshadow="2"
     inkscape:pageopacity="0.0"
     inkscape:pagecheckerboard="0"
     inkscape:deskcolor="#d1d1d1"
     inkscape:document-units="mm"
     showgrid="false"
     inkscape:zoom="0.61027131"
     inkscape:cx="344.92855"
     inkscape:cy="497.31979"
     inkscape:window-width="1920"
     inkscape:window-height="991"
     inkscape:window-x="-9"
     inkscape:window-y="-9"
     inkscape:window-maximized="1"
     inkscape:current-layer="layer1" />
  <defs
     id="defs2" />
  <g
     inkscape:label="Layer 1"
     inkscape:groupmode="layer"
     id="layer1"
     transform="translate(-5.0956703,-17.188289)">
    <ellipse
       style="fill:#ffaaaa;stroke:#ff8080;stroke-width:2.592;stroke-dasharray:none;stroke-opacity:1"
       id="path234"
       cx="100.35289"
       cy="146.39937"
       rx="93.96122"
       ry="75.570747" />
    <path
       style="fill:#ffaaaa;stroke:#ff8080;stroke-width:2.611;stroke-dasharray:none;stroke-opacity:1"
       d="M 79.782622,78.716528 39.690684,22.441443 23.940279,114.40317 Z"
       id="path344" />
    <path
       style="fill:#ffaaaa;stroke:#ff8080;stroke-width:2.611;stroke-dasharray:none;stroke-opacity:1"
       d="m 126.00675,76.77608 40.09194,-56.275085 15.7504,91.961725 z"
       id="path344-4" />
    <path
       style="fill:#ffaaaa;stroke-width:0.407652"
       d="M 110.66911,136.26536 Z"
       id="path348" />
    <ellipse
       style="fill:#ffaaaa;stroke:#ffaaaa;stroke-width:1.93788;stroke-linecap:round;stroke-dasharray:none;stroke-opacity:1;paint-order:normal"
       id="path3382"
       cx="62.939709"
       cy="118.37785"
       rx="43.198307"
       ry="29.481586" />
    <ellipse
       style="fill:#ffaaaa;stroke:#ffaaaa;stroke-width:1.93788;stroke-linecap:round;stroke-dasharray:none;stroke-opacity:1;paint-order:normal"
       id="path3382-2"
       cx="81.667625"
       cy="104.34179"
       rx="43.198307"
       ry="29.481586" />
    <ellipse
       style="fill:#ffaaaa;stroke:#ffaaaa;stroke-width:1.86161;stroke-linecap:round;stroke-dasharray:none;stroke-opacity:1;paint-order:normal"
       id="path3382-2-2"
       cx="116.0703"
       cy="104.72316"
       rx="38.587482"
       ry="30.457842" />
    <ellipse
       style="fill:#ffaaaa;stroke:#ffaaaa;stroke-width:1.88782;stroke-linecap:round;stroke-dasharray:none;stroke-opacity:1;paint-order:normal"
       id="path3382-2-2-4"
       cx="145.39948"
       cy="124.8003"
       rx="39.983418"
       ry="30.227962" />
    <ellipse
       style="fill:#ffaaaa;stroke:#ffaaaa;stroke-width:1.88782;stroke-linecap:round;stroke-dasharray:none;stroke-opacity:1;paint-order:normal"
       id="path3382-2-2-4-3"
       cx="127.4638"
       cy="111.20566"
       rx="39.983418"
       ry="30.227962" />
    <path
       style="fill:#ff5555;stroke:#ff5555;stroke-width:2.709;stroke-linecap:round;stroke-dasharray:none;stroke-opacity:1;paint-order:normal"
       id="path4080"
       d="m 71.200994,171.7013 c 0.804124,1.9298 1.377672,3.94332 2.190906,5.86833 0.937072,2.05754 1.674156,4.24616 2.909845,6.15571 0.265123,0.40971 0.576673,0.78743 0.86501,1.18114 2.500244,3.18939 4.495215,4.01398 8.142139,6.05349 1.663722,0.58277 3.394269,0.50134 5.11188,0.27617 1.881029,-0.22565 3.621627,-0.97436 5.230196,-1.94386 1.478198,-1.02259 3.107928,-1.86112 4.41272,-3.11093 0.75393,-0.55601 1.23905,-1.37171 1.95561,-1.96169 0.10152,-0.0147 0.20748,-0.0772 0.30457,-0.0441 0.11932,0.0407 0.39996,0.3025 0.28726,0.246 -1.02838,-0.51558 -1.99108,-1.16249 -3.04321,-1.62768 -0.183862,-0.0813 0.272441,0.29646 0.394184,0.45644 0.272526,0.35811 0.505566,0.773 0.735636,1.15756 0.62502,1.23956 1.21568,2.49621 1.93748,3.68309 0.6796,1.10268 1.55216,2.05068 2.57738,2.83595 2.70239,1.78311 3.79061,2.55409 6.56245,2.72046 1.24063,0.051 2.48358,-0.28145 3.65832,-0.65774 0.85396,-0.41202 1.6863,-0.84195 2.44975,-1.40621 0.95306,-0.73025 1.73824,-1.65215 2.4706,-2.59702 0.72869,-0.91488 1.18841,-1.96021 1.67175,-3.01155 0.35655,-0.81283 0.62539,-1.6694 0.83163,-2.5325 0.16258,-1.19156 0.68875,-2.28197 1.13576,-3.38557 0.58099,-1.30369 1.0014,-2.67034 1.48131,-4.01382 0.34557,-1.13396 0.70256,-2.26519 0.92357,-3.43111 0.16193,-0.69544 0.0797,-0.34982 0.24673,-1.03688 0.0794,-0.14714 -3.3887,-2.01906 -3.46812,-1.87192 v 0 c -0.167,0.69611 -0.0822,0.34356 -0.2543,1.05763 -0.2039,1.14992 -0.55788,2.26208 -0.88017,3.3829 -0.47519,1.33955 -0.89369,2.70113 -1.46924,4.00124 -0.45377,1.11927 -1.02906,2.2131 -1.18961,3.42443 -0.19686,0.83983 -0.4649,1.66982 -0.7924,2.4671 -0.46075,1.03007 -0.90215,2.04637 -1.61466,2.93844 -0.71043,0.91799 -1.48277,1.80337 -2.42397,2.49268 -0.74076,0.51907 -1.54354,0.93738 -2.36919,1.3054 -1.16043,0.34058 -2.35927,0.6531 -3.57826,0.53549 -0.54028,-0.0467 -1.07591,-0.0944 -1.60146,-0.23796 -1.31791,-0.36006 -3.46875,-1.86795 1.86893,1.29845 -1.07261,-0.68654 -1.94294,-1.63998 -2.64963,-2.69554 -0.74806,-1.16768 -1.35168,-2.41949 -1.94126,-3.67321 -1.39416,-2.41843 -1.30603,-2.0427 -4.784412,-4.01821 -0.306351,-0.17399 -0.579099,0.0291 -0.832266,0.14721 -0.693851,0.6209 -1.218874,1.40291 -1.946936,1.99241 -1.274948,1.22782 -2.864482,2.07507 -4.324887,3.05742 -1.599187,0.90681 -3.304466,1.61045 -5.150001,1.80481 -1.690121,0.17771 -3.394249,0.21684 -4.991145,-0.46379 0.878277,0.52593 1.758908,1.04794 2.63483,1.57778 0.255444,0.15451 -0.525233,-0.28572 -0.77333,-0.45178 -1.312055,-0.87817 -2.405687,-2.02335 -3.420978,-3.22121 -0.293814,-0.379 -0.612349,-0.74008 -0.881441,-1.13702 -1.26856,-1.87127 -1.978361,-4.06423 -2.908292,-6.10585 -0.831995,-1.89157 -1.382252,-3.88502 -2.119193,-5.81443 0.07069,-0.15198 -3.511396,-1.8181 -3.582085,-1.66613 z" />
  </g>
</svg>
